<?xml version="1.0" standalone="no"?>
<!DOCTYPE svg PUBLIC "-//W3C//DTD SVG 20010904//EN"
 "http://www.w3.org/TR/2001/REC-SVG-20010904/DTD/svg10.dtd">
<svg version="1.0" xmlns="http://www.w3.org/2000/svg"
 width="145.000000pt" height="145.000000pt" viewBox="0 0 145.000000 145.000000"
 preserveAspectRatio="xMidYMid meet">

<g transform="translate(0.000000,145.000000) scale(0.100000,-0.100000)"
fill="#000000" stroke="none">
<path d="M763 1370 c-23 -5 -54 -16 -70 -25 -26 -15 -26 -15 -3 -9 50 14 95
24 112 24 15 0 14 -5 -7 -36 -30 -45 -39 -89 -32 -162 8 -87 52 -182 155 -336
143 -211 172 -293 152 -422 -24 -147 -111 -267 -238 -327 -59 -28 -77 -32
-152 -31 -69 0 -95 5 -140 26 -114 52 -173 135 -151 213 7 25 7 35 0 28 -5 -5
-12 -26 -16 -46 -14 -86 62 -184 176 -228 42 -16 79 -22 147 -23 85 -1 94 1
166 37 92 45 162 117 210 215 32 65 33 71 33 192 0 120 -1 127 -32 191 -18 36
-69 117 -113 180 -111 157 -159 258 -167 348 -5 55 -2 80 11 109 20 45 44 61
111 78 l50 12 -80 0 c-44 0 -99 -4 -122 -8z"/>
<path d="M587 1172 c-21 -23 -21 -32 -2 -32 8 0 15 4 15 10 0 5 11 13 26 16
18 5 32 0 51 -17 25 -24 26 -24 14 -2 -22 44 -76 56 -104 25z"/>
<path d="M600 1096 c-6 -8 -10 -25 -8 -38 3 -20 9 -23 58 -26 l55 -3 -40 40
c-44 46 -47 47 -65 27z m50 -36 c0 -5 -4 -10 -10 -10 -5 0 -10 5 -10 10 0 6 5
10 10 10 6 0 10 -4 10 -10z"/>
<path d="M448 1044 c-69 -55 -81 -81 -53 -104 17 -14 20 -56 4 -65 -6 -4 -9
-19 -8 -33 1 -15 -2 -35 -6 -45 -4 -10 -5 -31 -2 -47 4 -16 2 -32 -3 -35 -6
-3 -10 -24 -10 -46 0 -53 35 -74 138 -84 102 -9 154 -33 231 -108 35 -34 55
-48 43 -32 -36 52 -105 113 -152 133 -25 11 -76 23 -115 27 -124 13 -148 34
-115 107 12 27 16 46 10 52 -17 17 -11 26 15 26 30 0 32 11 5 28 -27 17 -26
36 3 29 18 -5 20 -4 7 6 -18 13 -21 78 -5 89 6 4 0 8 -11 8 -50 0 -30 40 52
101 19 14 50 50 43 48 -2 0 -34 -25 -71 -55z"/>
<path d="M790 630 c-25 -11 -65 -20 -90 -21 -34 -2 -38 -3 -16 -6 46 -7 108 6
136 27 30 23 28 23 -30 0z"/>
</g>
</svg>
